<svg xmlns="http://www.w3.org/2000/svg" width="23.265" height="25.055" viewBox="0 0 23.265 25.055"><defs><style>.a{fill:#5492c6;}</style></defs><g transform="translate(0 16.107)"><g transform="translate(0)"><path class="a" d="M39.436,307.2a.9.9,0,0,0-.895.895v5.369a.9.9,0,0,1-.895.895H19.75a.9.9,0,0,1-.895-.895v-5.369a.895.895,0,1,0-1.79,0v5.369a2.684,2.684,0,0,0,2.684,2.684h17.9a2.684,2.684,0,0,0,2.684-2.684v-5.369A.9.9,0,0,0,39.436,307.2Z" transform="translate(-17.066 -307.2)"/></g></g><g transform="translate(6.275)"><g transform="translate(0)"><path class="a" d="M147.186,15.474a.9.9,0,0,0-1.243,0l-2.948,2.947V.895a.895.895,0,0,0-1.79,0V18.421l-2.947-2.947a.895.895,0,0,0-1.265,1.265l4.474,4.474a.9.9,0,0,0,1.265,0l0,0,4.474-4.474A.9.9,0,0,0,147.186,15.474Z" transform="translate(-136.742)"/></g></g></svg>